<svg width="28" height="29" viewBox="0 0 28 29" fill="none" xmlns="http://www.w3.org/2000/svg">
<rect y="0.5" width="28" height="28" rx="6" fill="#DBDBDB"/>
<path d="M11.4669 9.48275L11.467 9.48279C11.5729 9.36866 11.7189 9.3 11.8762 9.3C12.0335 9.3 12.1796 9.36864 12.2855 9.48275C12.2855 9.48277 12.2855 9.48278 12.2855 9.48279L16.5285 14.0524C16.5841 14.1123 16.6272 14.183 16.6563 14.2597C16.6853 14.3362 16.7 14.4179 16.7 14.5C16.7 14.5821 16.6853 14.6638 16.6563 14.7403C16.6272 14.8169 16.5841 14.8877 16.5285 14.9476L11.4669 9.48275ZM11.4669 9.48275L11.4638 9.48631L11.4607 9.48976C11.4088 9.54607 11.3686 9.61227 11.3414 9.68383C11.3139 9.75625 11.3 9.83347 11.3 9.911C11.3 9.98853 11.3139 10.0658 11.3414 10.1382C11.3689 10.2106 11.4097 10.2775 11.4625 10.3342C11.4626 10.3342 11.4626 10.3343 11.4626 10.3343L15.3316 14.5008L11.4626 18.6657L11.4669 9.48275ZM12.2855 19.5172L16.5285 14.9476L11.4625 18.6659C11.4097 18.7226 11.3689 18.7895 11.3414 18.8618C11.3139 18.9342 11.3 19.0115 11.3 19.089C11.3 19.1665 11.3139 19.2438 11.3414 19.3162C11.3686 19.3877 11.4088 19.4539 11.4607 19.5102L11.4638 19.5137L11.4637 19.5137L11.467 19.5172C11.5729 19.6313 11.7189 19.7 11.8762 19.7C12.0335 19.7 12.1796 19.6314 12.2855 19.5172C12.2855 19.5172 12.2855 19.5172 12.2855 19.5172Z" fill="white" stroke="white" stroke-width="0.4"/>
</svg>
