<svg width="24" height="24" viewBox="0 0 24 24" fill="none" xmlns="http://www.w3.org/2000/svg">
<path d="M3.2999 2.3999C3.5386 2.3999 3.76752 2.49472 3.9363 2.66351C4.10508 2.83229 4.1999 3.06121 4.1999 3.2999V18.2999C4.1999 19.1279 4.8719 19.7999 5.6999 19.7999H20.6999C20.9386 19.7999 21.1675 19.8947 21.3363 20.0635C21.5051 20.2323 21.5999 20.4612 21.5999 20.6999C21.5999 20.9386 21.5051 21.1675 21.3363 21.3363C21.1675 21.5051 20.9386 21.5999 20.6999 21.5999H5.6999C4.82469 21.5999 3.98532 21.2522 3.36645 20.6334C2.74758 20.0145 2.3999 19.1751 2.3999 18.2999V3.2999C2.3999 3.06121 2.49472 2.83229 2.66351 2.66351C2.83229 2.49472 3.06121 2.3999 3.2999 2.3999ZM19.1999 6.5999V18.5999H5.6999C5.62034 18.5999 5.54403 18.5683 5.48777 18.512C5.43151 18.4558 5.3999 18.3795 5.3999 18.2999V9.6767L8.1563 8.4527C8.24226 8.41434 8.33604 8.39674 8.43005 8.40133C8.52407 8.40592 8.61569 8.43256 8.6975 8.4791L12.5435 10.6763L18.2255 6.1319C18.3137 6.06145 18.42 6.01732 18.5322 6.00459C18.6444 5.99185 18.7579 6.01102 18.8597 6.05991C18.9614 6.10879 19.0474 6.18539 19.1075 6.28091C19.1677 6.37643 19.1997 6.487 19.1999 6.5999Z" fill="#848484"/>
</svg>
