<svg width="42" height="42" viewBox="0 0 42 42" fill="none" xmlns="http://www.w3.org/2000/svg">
<path d="M7 33.25V17.5C7 16.9458 7.12425 16.4208 7.37275 15.925C7.62125 15.4292 7.96367 15.0208 8.4 14.7L18.9 6.825C19.5125 6.35833 20.2125 6.125 21 6.125C21.7875 6.125 22.4875 6.35833 23.1 6.825L33.6 14.7C34.0375 15.0208 34.3805 15.4292 34.629 15.925C34.8775 16.4208 35.0012 16.9458 35 17.5V33.25C35 34.2125 34.657 35.0368 33.971 35.7228C33.285 36.4088 32.4613 36.7512 31.5 36.75H26.25C25.7542 36.75 25.3388 36.582 25.004 36.246C24.6692 35.91 24.5012 35.4947 24.5 35V26.25C24.5 25.7542 24.332 25.3388 23.996 25.004C23.66 24.6692 23.2447 24.5012 22.75 24.5H19.25C18.7542 24.5 18.3388 24.668 18.004 25.004C17.6692 25.34 17.5012 25.7553 17.5 26.25V35C17.5 35.4958 17.332 35.9117 16.996 36.2477C16.66 36.5837 16.2447 36.7512 15.75 36.75H10.5C9.5375 36.75 8.71383 36.4076 8.029 35.7228C7.34417 35.0379 7.00117 34.2137 7 33.25Z" fill="#C6C6C6"/>
</svg>
