<svg width="18" height="18" viewBox="0 0 18 18" fill="none" xmlns="http://www.w3.org/2000/svg">
<path fill-rule="evenodd" clip-rule="evenodd" d="M10 1.74976C10 1.19747 9.55229 0.749756 9 0.749756C8.44772 0.749756 8 1.19747 8 1.74976V8.00002H1.74951C1.19723 8.00002 0.749512 8.44773 0.749512 9.00002C0.749512 9.5523 1.19723 10 1.74951 10H8V16.2503C8 16.8026 8.44772 17.2503 9 17.2503C9.55229 17.2503 10 16.8026 10 16.2503V10H16.25C16.8023 10 17.25 9.5523 17.25 9.00002C17.25 8.44773 16.8023 8.00002 16.25 8.00002H10V1.74976Z" fill="#FAFCFE"/>
</svg>
